# xmcd
#
# Track frame offsets:
#	150
#	10847
#	21828
#	33326
#	49403
#	59702
#	77901
#	87755
#	98058
#	113772
#	125008
#	137525
#	150112
#	159708
#
# Disc length: 2296 seconds
#
# Revision: 1
# Processed by: cddbd v1.5.2PL0 Copyright (c) Steve Scherf et al.
# Submitted via: audiograbber 1.83.01
#
DISCID=ac08f60e
DTITLE=Johnny Paycheck - Greatest Hits
DYEAR=1968
DGENRE=Country
TTITLE0=A 11
TTITLE1=Jukebox Charlie 
TTITLE2=Lovin' Machine
TTITLE3=The Cave
TTITLE4=Motel Time Again
TTITLE5=You'll Recover In Time
TTITLE6=If You Should Come Back Today
TTITLE7=Don't Monkey With Another Monkey's Monkey
TTITLE8=Ballad Of The Green Berets
TTITLE9=And I'll Be Hating You
TTITLE10=Touch My Heart
TTITLE11=My Heart Keeps Running To You
TTITLE12=Yesterday, Today and Tomorrow
TTITLE13=Fool's Hall Of Shame
EXTD=
EXTT0=
EXTT1=
EXTT2=
EXTT3=
EXTT4=
EXTT5=
EXTT6=
EXTT7=
EXTT8=
EXTT9=
EXTT10=
EXTT11=
EXTT12=
EXTT13=
PLAYORDER=
